<svg id="Layer_1" data-name="Layer 1" xmlns="http://www.w3.org/2000/svg" width="650" height="1314" viewBox="0 0 650 1314"><path d="M648,2V1312H2V2H648m2-2H0V1314H650V0Z"/><path d="M623,48V87H27V48H623m2-2H25V89H625V46Z"/><path d="M36.28,73.84a5.55,5.55,0,0,0,2.79.84c1.53,0,2.25-.77,2.25-1.73s-.6-1.56-2.16-2.13c-2.09-.75-3.07-1.9-3.07-3.29,0-1.87,1.51-3.41,4-3.41a5.81,5.81,0,0,1,2.85.72l-.52,1.54a4.52,4.52,0,0,0-2.38-.68c-1.25,0-1.95.72-1.95,1.59s.7,1.39,2.21,2c2,.76,3,1.77,3,3.5,0,2-1.58,3.48-4.34,3.48a6.67,6.67,0,0,1-3.27-.79Z"/><path d="M47.25,70.58a3.72,3.72,0,0,0,4,4,7.72,7.72,0,0,0,3.22-.6l.36,1.51a9.33,9.33,0,0,1-3.86.72c-3.58,0-5.72-2.35-5.72-5.86s2.07-6.26,5.45-6.26c3.79,0,4.8,3.34,4.8,5.47a9.22,9.22,0,0,1-.07,1Zm6.19-1.52c0-1.34-.55-3.43-2.93-3.43-2.13,0-3.07,2-3.24,3.43Z"/><path d="M66.38,75.57a7.77,7.77,0,0,1-3.34.67c-3.5,0-5.78-2.38-5.78-5.93a5.91,5.91,0,0,1,6.24-6.17,7.21,7.21,0,0,1,2.93.6L66,66.38a4.9,4.9,0,0,0-2.45-.56c-2.67,0-4.11,2-4.11,4.4a4,4,0,0,0,4,4.34A5.9,5.9,0,0,0,66,74Z"/><path d="M71.7,61.05v3.33h3V66h-3v6.27c0,1.44.41,2.25,1.59,2.25a4.78,4.78,0,0,0,1.22-.14l.1,1.58a5.14,5.14,0,0,1-1.87.29,2.9,2.9,0,0,1-2.28-.89,4.28,4.28,0,0,1-.82-3V66h-1.8V64.38h1.8V61.6Z"/><path d="M79.46,61.12a1.31,1.31,0,0,1-2.62,0,1.28,1.28,0,0,1,1.32-1.32A1.25,1.25,0,0,1,79.46,61.12ZM77.1,76V64.38h2.12V76Z"/><path d="M93.23,70.1c0,4.29-3,6.16-5.78,6.16-3.15,0-5.57-2.3-5.57-6,0-3.89,2.54-6.17,5.76-6.17S93.23,66.54,93.23,70.1ZM84,70.22c0,2.54,1.46,4.46,3.52,4.46s3.53-1.9,3.53-4.51c0-2-1-4.47-3.48-4.47S84,68,84,70.22Z"/><path d="M95.9,67.53c0-1.2,0-2.19-.1-3.15h1.87l.12,1.92h0a4.28,4.28,0,0,1,3.84-2.18c1.61,0,4.1,1,4.1,4.94V76h-2.11V69.3c0-1.87-.69-3.43-2.69-3.43A3,3,0,0,0,98.15,68,3.28,3.28,0,0,0,98,69v7H95.9Z"/><path d="M109.7,76l.62-4.7h-2V69.88h2.19L111,66.4h-2.06V65h2.28l.62-4.58h1.39l-.6,4.58h2.5l.62-4.58h1.42l-.6,4.58h2V66.4h-2.19l-.43,3.48H118V71.3H115.7l-.63,4.7h-1.44l.63-4.7h-2.5l-.62,4.7Zm4.77-6.12.46-3.48h-2.5L112,69.88Z"/><path d="M121.14,59h2.12V76h-2.12Z"/><path d="M133.24,76l-.17-1.46H133a4.33,4.33,0,0,1-3.55,1.72,3.3,3.3,0,0,1-3.55-3.33c0-2.81,2.49-4.35,7-4.32v-.24a2.39,2.39,0,0,0-2.64-2.69,5.83,5.83,0,0,0-3,.86l-.48-1.39a7.23,7.23,0,0,1,3.81-1c3.55,0,4.42,2.42,4.42,4.75v4.35a16.79,16.79,0,0,0,.19,2.78Zm-.31-5.93c-2.31,0-4.92.36-4.92,2.62a1.86,1.86,0,0,0,2,2,2.9,2.9,0,0,0,2.81-1.94,2.31,2.31,0,0,0,.12-.67Z"/><path d="M138.38,67.53c0-1.2,0-2.19-.1-3.15h1.87l.12,1.92h0a4.28,4.28,0,0,1,3.84-2.18c1.61,0,4.1,1,4.1,4.94V76h-2.11V69.3c0-1.87-.69-3.43-2.69-3.43A3,3,0,0,0,140.63,68a3.28,3.28,0,0,0-.14,1v7h-2.11Z"/><path d="M161.73,59V73c0,1,0,2.21.09,3h-1.89l-.1-2h-.05a4.28,4.28,0,0,1-4,2.28c-2.8,0-5-2.37-5-5.9,0-3.86,2.38-6.24,5.21-6.24a3.89,3.89,0,0,1,3.51,1.78h.05V59Zm-2.11,10.15a3.92,3.92,0,0,0-.1-.89,3.11,3.11,0,0,0-3.05-2.45c-2.18,0-3.48,1.93-3.48,4.49,0,2.36,1.15,4.3,3.43,4.3a3.18,3.18,0,0,0,3.1-2.52,3.79,3.79,0,0,0,.1-.91Z"/><path d="M167.58,61.12a1.24,1.24,0,0,1-1.34,1.3,1.26,1.26,0,0,1-1.27-1.3,1.28,1.28,0,0,1,1.32-1.32A1.25,1.25,0,0,1,167.58,61.12ZM165.23,76V64.38h2.11V76Z"/><path d="M170.85,67.53c0-1.2,0-2.19-.1-3.15h1.87l.12,1.92h0a4.28,4.28,0,0,1,3.84-2.18c1.61,0,4.11,1,4.11,4.94V76h-2.12V69.3c0-1.87-.69-3.43-2.68-3.43A3,3,0,0,0,173.1,68a3.28,3.28,0,0,0-.14,1v7h-2.11Z"/><path d="M194.17,64.38c0,.84-.09,1.78-.09,3.2v6.74c0,2.66-.53,4.3-1.66,5.3A6.14,6.14,0,0,1,188.2,81a7.58,7.58,0,0,1-3.87-1l.53-1.61a6.56,6.56,0,0,0,3.41.91c2.16,0,3.74-1.13,3.74-4.06V74h0a4.15,4.15,0,0,1-3.7,1.94c-2.88,0-4.94-2.45-4.94-5.66,0-3.94,2.56-6.17,5.23-6.17a3.85,3.85,0,0,1,3.62,2h0l.1-1.76ZM192,69a2.91,2.91,0,0,0-.12-1,3,3,0,0,0-3-2.24c-2,0-3.46,1.71-3.46,4.4,0,2.28,1.15,4.17,3.43,4.17a3.07,3.07,0,0,0,2.93-2.16,3.63,3.63,0,0,0,.17-1.12Z"/><path d="M623,113V399H27V113H623m2-2H25V401H625V111Z"/><path d="M36.28,138.84a5.55,5.55,0,0,0,2.79.84c1.53,0,2.25-.77,2.25-1.73s-.6-1.56-2.16-2.13c-2.09-.75-3.07-1.9-3.07-3.29,0-1.87,1.51-3.41,4-3.41a5.81,5.81,0,0,1,2.85.72l-.52,1.54a4.52,4.52,0,0,0-2.38-.68c-1.25,0-1.95.72-1.95,1.59s.7,1.39,2.21,2c2,.76,3,1.77,3,3.5,0,2-1.58,3.48-4.34,3.48a6.67,6.67,0,0,1-3.27-.79Z"/><path d="M47.25,135.58a3.72,3.72,0,0,0,4,4,7.72,7.72,0,0,0,3.22-.6l.36,1.51a9.33,9.33,0,0,1-3.86.72c-3.58,0-5.72-2.35-5.72-5.86s2.07-6.26,5.45-6.26c3.79,0,4.8,3.34,4.8,5.47a9.22,9.22,0,0,1-.07,1Zm6.19-1.52c0-1.34-.55-3.43-2.93-3.43-2.13,0-3.07,2-3.24,3.43Z"/><path d="M66.38,140.57a7.77,7.77,0,0,1-3.34.67c-3.5,0-5.78-2.38-5.78-5.93a5.91,5.91,0,0,1,6.24-6.17,7.21,7.21,0,0,1,2.93.6L66,131.38a4.9,4.9,0,0,0-2.45-.56c-2.67,0-4.11,2-4.11,4.4a4,4,0,0,0,4,4.34A5.9,5.9,0,0,0,66,139Z"/><path d="M71.7,126.05v3.33h3V131h-3v6.27c0,1.44.41,2.25,1.59,2.25a4.78,4.78,0,0,0,1.22-.14l.1,1.58a5.14,5.14,0,0,1-1.87.29,2.9,2.9,0,0,1-2.28-.89,4.28,4.28,0,0,1-.82-3V131h-1.8v-1.61h1.8V126.6Z"/><path d="M79.46,126.12a1.31,1.31,0,0,1-2.62,0,1.28,1.28,0,0,1,1.32-1.32A1.25,1.25,0,0,1,79.46,126.12ZM77.1,141V129.38h2.12V141Z"/><path d="M93.23,135.1c0,4.29-3,6.16-5.78,6.16-3.15,0-5.57-2.3-5.57-6,0-3.89,2.54-6.17,5.76-6.17S93.23,131.54,93.23,135.1Zm-9.21.12c0,2.54,1.46,4.46,3.52,4.46s3.53-1.9,3.53-4.51c0-2-1-4.47-3.48-4.47S84,133,84,135.22Z"/><path d="M95.9,132.53c0-1.2,0-2.19-.1-3.15h1.87l.12,1.92h0a4.28,4.28,0,0,1,3.84-2.18c1.61,0,4.1,1,4.1,4.94V141h-2.11v-6.7c0-1.87-.69-3.43-2.69-3.43A3,3,0,0,0,98.15,133a3.28,3.28,0,0,0-.14,1v7H95.9Z"/><path d="M109.7,141l.62-4.7h-2v-1.42h2.19l.45-3.48h-2.06V130h2.28l.62-4.58h1.39l-.6,4.58h2.5l.62-4.58h1.42l-.6,4.58h2v1.42h-2.19l-.43,3.48H118v1.42H115.7l-.63,4.7h-1.44l.63-4.7h-2.5l-.62,4.7Zm4.77-6.12.46-3.48h-2.5l-.45,3.48Z"/><path d="M123.5,126.12a1.31,1.31,0,0,1-2.62,0,1.28,1.28,0,0,1,1.32-1.32A1.25,1.25,0,0,1,123.5,126.12ZM121.14,141V129.38h2.12V141Z"/><path d="M126.76,132.53c0-1.2,0-2.19-.1-3.15h1.88l.12,1.92h0a4.28,4.28,0,0,1,3.84-2.18c1.61,0,4.11,1,4.11,4.94V141h-2.11v-6.7c0-1.87-.7-3.43-2.69-3.43a3.12,3.12,0,0,0-3,3.15v7h-2.11Z"/><path d="M142.53,126.05v3.33h3V131h-3v6.27c0,1.44.41,2.25,1.58,2.25a4.93,4.93,0,0,0,1.23-.14l.09,1.58a5.1,5.1,0,0,1-1.87.29,2.91,2.91,0,0,1-2.28-.89,4.28,4.28,0,0,1-.82-3V131h-1.8v-1.61h1.8V126.6Z"/><path d="M147.93,133c0-1.37,0-2.55-.1-3.63h1.85l.07,2.28h.1a3.48,3.48,0,0,1,3.21-2.54,2.2,2.2,0,0,1,.6.07v2a3.65,3.65,0,0,0-.72-.07,3,3,0,0,0-2.83,2.71,5.86,5.86,0,0,0-.09,1V141h-2.09Z"/><path d="M166.05,135.1c0,4.29-3,6.16-5.79,6.16-3.14,0-5.56-2.3-5.56-6,0-3.89,2.54-6.17,5.76-6.17S166.05,131.54,166.05,135.1Zm-9.22.12c0,2.54,1.47,4.46,3.53,4.46s3.53-1.9,3.53-4.51c0-2-1-4.47-3.48-4.47S156.83,133,156.83,135.22Z"/><path d="M178.74,124v14c0,1,0,2.21.1,3h-1.9l-.09-2h0a4.29,4.29,0,0,1-4,2.28c-2.81,0-5-2.37-5-5.9,0-3.86,2.38-6.24,5.21-6.24a3.86,3.86,0,0,1,3.5,1.78h0V124Zm-2.11,10.15a3.9,3.9,0,0,0-.09-.89,3.12,3.12,0,0,0-3-2.45c-2.19,0-3.48,1.93-3.48,4.49,0,2.36,1.15,4.3,3.43,4.3a3.18,3.18,0,0,0,3.1-2.52,3.8,3.8,0,0,0,.09-.91Z"/><path d="M192,137.83c0,1.2,0,2.26.09,3.17h-1.87l-.12-1.9h0a4.35,4.35,0,0,1-3.84,2.16c-1.82,0-4-1-4-5.08v-6.8h2.12v6.44c0,2.2.67,3.69,2.59,3.69a3,3,0,0,0,3-3v-7.13H192Z"/><path d="M203.75,140.57a7.72,7.72,0,0,1-3.33.67c-3.51,0-5.79-2.38-5.79-5.93a5.91,5.91,0,0,1,6.24-6.17,7.21,7.21,0,0,1,2.93.6l-.48,1.64a4.87,4.87,0,0,0-2.45-.56c-2.66,0-4.1,2-4.1,4.4,0,2.68,1.73,4.34,4,4.34a5.9,5.9,0,0,0,2.59-.58Z"/><path d="M209.08,126.05v3.33h3V131h-3v6.27c0,1.44.41,2.25,1.58,2.25a4.93,4.93,0,0,0,1.23-.14L212,141a5.06,5.06,0,0,1-1.87.29,2.91,2.91,0,0,1-2.28-.89,4.28,4.28,0,0,1-.82-3V131h-1.8v-1.61H207V126.6Z"/><path d="M216.83,126.12a1.25,1.25,0,0,1-1.34,1.3,1.26,1.26,0,0,1-1.28-1.3,1.29,1.29,0,0,1,1.33-1.32A1.25,1.25,0,0,1,216.83,126.12ZM214.48,141V129.38h2.11V141Z"/><path d="M230.61,135.1c0,4.29-3,6.16-5.79,6.16-3.14,0-5.57-2.3-5.57-6,0-3.89,2.55-6.17,5.76-6.17S230.61,131.54,230.61,135.1Zm-9.22.12c0,2.54,1.46,4.46,3.53,4.46s3.53-1.9,3.53-4.51c0-2-1-4.47-3.48-4.47S221.39,133,221.39,135.22Z"/><path d="M233.27,132.53c0-1.2,0-2.19-.1-3.15h1.88l.12,1.92h0a4.28,4.28,0,0,1,3.84-2.18c1.61,0,4.11,1,4.11,4.94V141h-2.11v-6.7c0-1.87-.7-3.43-2.69-3.43a3.12,3.12,0,0,0-3,3.15v7h-2.11Z"/><path d="M623,980v286H27V980H623m2-2H25v290H625V978Z"/><path d="M36.28,1005.84a5.55,5.55,0,0,0,2.79.84c1.53,0,2.25-.77,2.25-1.73s-.6-1.56-2.16-2.13c-2.09-.75-3.07-1.9-3.07-3.29,0-1.87,1.51-3.41,4-3.41a5.81,5.81,0,0,1,2.85.72l-.52,1.54a4.52,4.52,0,0,0-2.38-.68c-1.25,0-1.95.72-1.95,1.59s.7,1.39,2.21,2c2,.76,3,1.77,3,3.5,0,2-1.58,3.48-4.34,3.48a6.67,6.67,0,0,1-3.27-.79Z"/><path d="M47.25,1002.58a3.72,3.72,0,0,0,4,4,7.72,7.72,0,0,0,3.22-.6l.36,1.51a9.33,9.33,0,0,1-3.86.72c-3.58,0-5.72-2.35-5.72-5.86s2.07-6.26,5.45-6.26c3.79,0,4.8,3.34,4.8,5.47a9.22,9.22,0,0,1-.07,1Zm6.19-1.52c0-1.34-.55-3.43-2.93-3.43-2.13,0-3.07,2-3.24,3.43Z"/><path d="M66.38,1007.57a7.77,7.77,0,0,1-3.34.67c-3.5,0-5.78-2.38-5.78-5.93a5.91,5.91,0,0,1,6.24-6.17,7.21,7.21,0,0,1,2.93.6L66,998.38a4.9,4.9,0,0,0-2.45-.56c-2.67,0-4.11,2-4.11,4.4a4,4,0,0,0,4,4.34A5.9,5.9,0,0,0,66,1006Z"/><path d="M71.7,993.05v3.33h3V998h-3v6.27c0,1.44.41,2.25,1.59,2.25a4.78,4.78,0,0,0,1.22-.14l.1,1.58a5.14,5.14,0,0,1-1.87.29,2.9,2.9,0,0,1-2.28-.89,4.28,4.28,0,0,1-.82-3V998h-1.8v-1.61h1.8V993.6Z"/><path d="M79.46,993.12a1.31,1.31,0,0,1-2.62,0,1.29,1.29,0,0,1,1.32-1.32A1.26,1.26,0,0,1,79.46,993.12ZM77.1,1008V996.38h2.12V1008Z"/><path d="M93.23,1002.1c0,4.29-3,6.16-5.78,6.16-3.15,0-5.57-2.3-5.57-6,0-3.89,2.54-6.17,5.76-6.17S93.23,998.54,93.23,1002.1Zm-9.21.12c0,2.54,1.46,4.46,3.52,4.46s3.53-1.9,3.53-4.51c0-2-1-4.47-3.48-4.47S84,1000,84,1002.22Z"/><path d="M95.9,999.53c0-1.2,0-2.19-.1-3.15h1.87l.12,1.92h0a4.28,4.28,0,0,1,3.84-2.18c1.61,0,4.1,1,4.1,4.94V1008h-2.11v-6.7c0-1.87-.69-3.43-2.69-3.43a3,3,0,0,0-2.83,2.16,3.28,3.28,0,0,0-.14,1v7H95.9Z"/><path d="M109.7,1008l.62-4.7h-2v-1.42h2.19l.45-3.48h-2.06V997h2.28l.62-4.58h1.39l-.6,4.58h2.5l.62-4.58h1.42l-.6,4.58h2v1.42h-2.19l-.43,3.48H118v1.42H115.7l-.63,4.7h-1.44l.63-4.7h-2.5l-.62,4.7Zm4.77-6.12.46-3.48h-2.5l-.45,3.48Z"/><path d="M131.15,996.38c-.05.84-.09,1.78-.09,3.2v6.74c0,2.66-.53,4.3-1.66,5.3a6.14,6.14,0,0,1-4.22,1.4,7.55,7.55,0,0,1-3.87-1l.53-1.61a6.56,6.56,0,0,0,3.41.91c2.16,0,3.74-1.13,3.74-4.06V1006h-.05a4.12,4.12,0,0,1-3.69,1.94c-2.88,0-5-2.45-5-5.66,0-3.94,2.57-6.17,5.24-6.17a3.86,3.86,0,0,1,3.62,2h.05l.09-1.76ZM129,1001a3.2,3.2,0,0,0-.12-1,3,3,0,0,0-2.95-2.23c-2,0-3.46,1.7-3.46,4.39,0,2.28,1.15,4.17,3.43,4.17a3.08,3.08,0,0,0,2.93-2.16,3.63,3.63,0,0,0,.17-1.12Z"/><path d="M141,1008l-.17-1.46h-.07a4.32,4.32,0,0,1-3.55,1.72,3.3,3.3,0,0,1-3.55-3.33c0-2.81,2.49-4.35,7-4.32v-.24a2.39,2.39,0,0,0-2.64-2.69,5.83,5.83,0,0,0-3,.86l-.48-1.39a7.23,7.23,0,0,1,3.81-1c3.56,0,4.42,2.42,4.42,4.75v4.35a16.79,16.79,0,0,0,.19,2.78Zm-.31-5.93c-2.3-.05-4.92.36-4.92,2.62a1.86,1.86,0,0,0,2,2,2.9,2.9,0,0,0,2.81-1.94,2.31,2.31,0,0,0,.12-.67Z"/><path d="M146.13,991h2.11v17h-2.11Z"/><path d="M151.79,991h2.11v17h-2.11Z"/><path d="M158.63,1002.58a3.72,3.72,0,0,0,4,4,7.7,7.7,0,0,0,3.21-.6l.36,1.51a9.3,9.3,0,0,1-3.86.72c-3.58,0-5.72-2.35-5.72-5.86s2.07-6.26,5.45-6.26c3.8,0,4.8,3.34,4.8,5.47a7.17,7.17,0,0,1-.07,1Zm6.19-1.52c0-1.34-.55-3.43-2.92-3.43-2.14,0-3.08,2-3.25,3.43Z"/><path d="M169.48,1000c0-1.37,0-2.55-.1-3.63h1.85l.07,2.28h.1a3.48,3.48,0,0,1,3.22-2.54,2.12,2.12,0,0,1,.59.07v2a3.63,3.63,0,0,0-.71-.07,3,3,0,0,0-2.84,2.71,7.12,7.12,0,0,0-.09,1V1008h-2.09Z"/><path d="M178.69,996.38l2.55,6.87c.26.77.55,1.68.74,2.37H182c.22-.69.46-1.58.74-2.42l2.31-6.82h2.23l-3.17,8.28c-1.51,4-2.54,6-4,7.28a5.67,5.67,0,0,1-2.59,1.36l-.53-1.77a5.81,5.81,0,0,0,1.85-1,6.54,6.54,0,0,0,1.77-2.36,1.39,1.39,0,0,0,.17-.5,2,2,0,0,0-.14-.55l-4.3-10.71Z"/><path d="M623,425V954H27V425H623m2-2H25V956H625V423Z"/><path d="M36.28,450.84a5.55,5.55,0,0,0,2.79.84c1.53,0,2.25-.77,2.25-1.73s-.6-1.56-2.16-2.13c-2.09-.75-3.07-1.9-3.07-3.29,0-1.87,1.51-3.41,4-3.41a5.81,5.81,0,0,1,2.85.72l-.52,1.54a4.52,4.52,0,0,0-2.38-.68c-1.25,0-1.95.72-1.95,1.59s.7,1.39,2.21,2c2,.76,3,1.77,3,3.5,0,2-1.58,3.48-4.34,3.48a6.67,6.67,0,0,1-3.27-.79Z"/><path d="M47.25,447.58a3.72,3.72,0,0,0,4,4,7.72,7.72,0,0,0,3.22-.6l.36,1.51a9.33,9.33,0,0,1-3.86.72c-3.58,0-5.72-2.35-5.72-5.86s2.07-6.26,5.45-6.26c3.79,0,4.8,3.34,4.8,5.47a9.22,9.22,0,0,1-.07,1Zm6.19-1.52c0-1.34-.55-3.43-2.93-3.43-2.13,0-3.07,2-3.24,3.43Z"/><path d="M66.38,452.57a7.77,7.77,0,0,1-3.34.67c-3.5,0-5.78-2.38-5.78-5.93a5.91,5.91,0,0,1,6.24-6.17,7.21,7.21,0,0,1,2.93.6L66,443.38a4.9,4.9,0,0,0-2.45-.56c-2.67,0-4.11,2-4.11,4.4a4,4,0,0,0,4,4.34A5.9,5.9,0,0,0,66,451Z"/><path d="M71.7,438.05v3.33h3V443h-3v6.27c0,1.44.41,2.25,1.59,2.25a4.78,4.78,0,0,0,1.22-.14l.1,1.58a5.14,5.14,0,0,1-1.87.29,2.9,2.9,0,0,1-2.28-.89,4.28,4.28,0,0,1-.82-3V443h-1.8v-1.61h1.8V438.6Z"/><path d="M79.46,438.12a1.31,1.31,0,0,1-2.62,0,1.28,1.28,0,0,1,1.32-1.32A1.25,1.25,0,0,1,79.46,438.12ZM77.1,453V441.38h2.12V453Z"/><path d="M93.23,447.1c0,4.29-3,6.16-5.78,6.16-3.15,0-5.57-2.3-5.57-6,0-3.89,2.54-6.17,5.76-6.17S93.23,443.54,93.23,447.1Zm-9.21.12c0,2.54,1.46,4.46,3.52,4.46s3.53-1.9,3.53-4.51c0-2-1-4.47-3.48-4.47S84,445,84,447.22Z"/><path d="M95.9,444.53c0-1.2,0-2.19-.1-3.15h1.87l.12,1.92h0a4.28,4.28,0,0,1,3.84-2.18c1.61,0,4.1,1,4.1,4.94V453h-2.11v-6.7c0-1.87-.69-3.43-2.69-3.43A3,3,0,0,0,98.15,445a3.28,3.28,0,0,0-.14,1v7H95.9Z"/><path d="M109.7,453l.62-4.7h-2v-1.42h2.19l.45-3.48h-2.06V442h2.28l.62-4.58h1.39l-.6,4.58h2.5l.62-4.58h1.42l-.6,4.58h2v1.42h-2.19l-.43,3.48H118v1.42H115.7l-.63,4.7h-1.44l.63-4.7h-2.5l-.62,4.7Zm4.77-6.12.46-3.48h-2.5l-.45,3.48Z"/><path d="M122,441.38l2.28,6.53c.38,1.06.7,2,.94,3h.07c.26-1,.6-1.92,1-3l2.26-6.53h2.21L126.14,453h-2l-4.42-11.62Z"/><path d="M135,438.12a1.25,1.25,0,0,1-1.34,1.3,1.26,1.26,0,0,1-1.28-1.3,1.29,1.29,0,0,1,1.32-1.32A1.25,1.25,0,0,1,135,438.12ZM132.69,453V441.38h2.11V453Z"/><path d="M148.34,436v14c0,1,0,2.21.09,3h-1.89l-.1-2h-.05a4.29,4.29,0,0,1-4,2.28c-2.81,0-5-2.37-5-5.9,0-3.86,2.38-6.24,5.21-6.24a3.89,3.89,0,0,1,3.51,1.78h0V436Zm-2.12,10.15a3.9,3.9,0,0,0-.09-.89,3.12,3.12,0,0,0-3-2.45c-2.18,0-3.48,1.93-3.48,4.49,0,2.36,1.15,4.3,3.43,4.3a3.18,3.18,0,0,0,3.1-2.52,3.8,3.8,0,0,0,.09-.91Z"/><path d="M153,447.58a3.72,3.72,0,0,0,4,4,7.79,7.79,0,0,0,3.22-.6l.36,1.51a9.39,9.39,0,0,1-3.87.72c-3.57,0-5.71-2.35-5.71-5.86s2.06-6.26,5.45-6.26c3.79,0,4.8,3.34,4.8,5.47a9.22,9.22,0,0,1-.07,1Zm6.19-1.52c0-1.34-.55-3.43-2.93-3.43-2.14,0-3.07,2-3.24,3.43Z"/><path d="M174.38,447.1c0,4.29-3,6.16-5.79,6.16-3.14,0-5.57-2.3-5.57-6,0-3.89,2.55-6.17,5.76-6.17S174.38,443.54,174.38,447.1Zm-9.22.12c0,2.54,1.46,4.46,3.53,4.46s3.52-1.9,3.52-4.51c0-2-1-4.47-3.47-4.47S165.16,445,165.16,447.22Z"/><path d="M187.29,454.8V456h-12v-1.2Z"/><path d="M188.75,450.84a5.55,5.55,0,0,0,2.79.84c1.53,0,2.25-.77,2.25-1.73s-.6-1.56-2.16-2.13c-2.09-.75-3.07-1.9-3.07-3.29,0-1.87,1.51-3.41,4-3.41a5.81,5.81,0,0,1,2.85.72l-.52,1.54a4.52,4.52,0,0,0-2.38-.68c-1.25,0-1.94.72-1.94,1.59s.69,1.39,2.2,2c2,.76,3.05,1.77,3.05,3.5,0,2-1.58,3.48-4.34,3.48a6.67,6.67,0,0,1-3.27-.79Z"/><path d="M199.72,447.58a3.72,3.72,0,0,0,4,4,7.72,7.72,0,0,0,3.22-.6l.36,1.51a9.33,9.33,0,0,1-3.86.72c-3.58,0-5.72-2.35-5.72-5.86s2.07-6.26,5.45-6.26c3.79,0,4.8,3.34,4.8,5.47a9.22,9.22,0,0,1-.07,1Zm6.19-1.52c0-1.34-.55-3.43-2.93-3.43-2.13,0-3.07,2-3.24,3.43Z"/><path d="M218.85,452.57a7.81,7.81,0,0,1-3.34.67c-3.5,0-5.78-2.38-5.78-5.93a5.9,5.9,0,0,1,6.24-6.17,7.25,7.25,0,0,1,2.93.6l-.48,1.64a4.9,4.9,0,0,0-2.45-.56c-2.67,0-4.11,2-4.11,4.4a4,4,0,0,0,4,4.34,5.93,5.93,0,0,0,2.59-.58Z"/><path d="M224.17,438.05v3.33h3V443h-3v6.27c0,1.44.41,2.25,1.59,2.25a4.78,4.78,0,0,0,1.22-.14l.1,1.58a5.14,5.14,0,0,1-1.87.29,2.9,2.9,0,0,1-2.28-.89,4.28,4.28,0,0,1-.82-3V443h-1.8v-1.61h1.8V438.6Z"/><path d="M231.93,438.12a1.31,1.31,0,0,1-2.62,0,1.28,1.28,0,0,1,1.32-1.32A1.25,1.25,0,0,1,231.93,438.12ZM229.57,453V441.38h2.12V453Z"/><path d="M245.7,447.1c0,4.29-3,6.16-5.78,6.16-3.15,0-5.57-2.3-5.57-6,0-3.89,2.54-6.17,5.76-6.17S245.7,443.54,245.7,447.1Zm-9.21.12c0,2.54,1.46,4.46,3.52,4.46s3.53-1.9,3.53-4.51c0-2-1-4.47-3.48-4.47S236.49,445,236.49,447.22Z"/><path d="M248.37,444.53c0-1.2,0-2.19-.1-3.15h1.87l.12,1.92h.05a4.28,4.28,0,0,1,3.84-2.18c1.61,0,4.1,1,4.1,4.94V453h-2.11v-6.7c0-1.87-.69-3.43-2.69-3.43a3,3,0,0,0-2.83,2.16,3.28,3.28,0,0,0-.14,1v7h-2.11Z"/><path d="M68,183l-.17-1.46h-.07a4.32,4.32,0,0,1-3.55,1.72,3.3,3.3,0,0,1-3.55-3.33c0-2.81,2.49-4.35,7-4.32v-.24A2.39,2.39,0,0,0,65,172.68a5.83,5.83,0,0,0-3,.86l-.48-1.39a7.23,7.23,0,0,1,3.81-1c3.56,0,4.42,2.42,4.42,4.75v4.35a16.79,16.79,0,0,0,.19,2.78Zm-.31-5.93c-2.3,0-4.92.36-4.92,2.62a1.86,1.86,0,0,0,2,2,2.9,2.9,0,0,0,2.81-1.94,2.31,2.31,0,0,0,.12-.67Z"/><path d="M73.14,175c0-1.37,0-2.55-.1-3.63h1.85l.07,2.28h.1a3.47,3.47,0,0,1,3.21-2.54,2.2,2.2,0,0,1,.6.07v2a3.65,3.65,0,0,0-.72-.07,3,3,0,0,0-2.83,2.71,5.86,5.86,0,0,0-.09,1V183H73.14Z"/><path d="M84.1,168.05v3.33h3V173h-3v6.27c0,1.44.41,2.25,1.59,2.25a4.78,4.78,0,0,0,1.22-.14L87,183a5.14,5.14,0,0,1-1.87.29,2.9,2.9,0,0,1-2.28-.89,4.28,4.28,0,0,1-.82-3V173h-1.8v-1.61H82V168.6Z"/><path d="M91.86,168.12a1.31,1.31,0,0,1-2.62,0,1.28,1.28,0,0,1,1.32-1.32A1.25,1.25,0,0,1,91.86,168.12ZM89.5,183V171.38h2.12V183Z"/><path d="M103.4,182.57a7.77,7.77,0,0,1-3.34.67c-3.5,0-5.78-2.38-5.78-5.93a5.91,5.91,0,0,1,6.24-6.17,7.21,7.21,0,0,1,2.93.6l-.48,1.64a4.9,4.9,0,0,0-2.45-.56c-2.66,0-4.1,2-4.1,4.4,0,2.68,1.72,4.34,4,4.34A5.9,5.9,0,0,0,103,181Z"/><path d="M105.87,166H108v17h-2.11Z"/><path d="M112.71,177.58a3.72,3.72,0,0,0,4,4,7.7,7.7,0,0,0,3.21-.6l.36,1.51a9.3,9.3,0,0,1-3.86.72c-3.58,0-5.71-2.35-5.71-5.86s2.06-6.26,5.44-6.26c3.8,0,4.8,3.34,4.8,5.47a7.17,7.17,0,0,1-.07,1Zm6.19-1.52c0-1.34-.55-3.43-2.92-3.43-2.14,0-3.08,2-3.24,3.43Z"/><path d="M122.77,181.75a1.42,1.42,0,0,1,1.44-1.51,1.51,1.51,0,1,1-1.44,1.51Z"/><path d="M128.46,183V173h-1.64v-1.61h1.64v-.5a5.24,5.24,0,0,1,1.63-4,5.51,5.51,0,0,1,3.72-1.18,7.49,7.49,0,0,1,3.48.77V183H135.2V167.64a3.77,3.77,0,0,0-1.73-.31c-2.21,0-2.93,1.6-2.93,3.48v.57h2.72V173h-2.72v10Z"/><path d="M142,177.58a3.72,3.72,0,0,0,4,4,7.75,7.75,0,0,0,3.22-.6l.36,1.51a9.39,9.39,0,0,1-3.87.72c-3.57,0-5.71-2.35-5.71-5.86s2.07-6.26,5.45-6.26c3.79,0,4.8,3.34,4.8,5.47a9.22,9.22,0,0,1-.07,1Zm6.19-1.52c0-1.34-.55-3.43-2.93-3.43-2.13,0-3.07,2-3.24,3.43Z"/><path d="M153.73,171.38l1.65,2.5c.44.65.8,1.25,1.18,1.9h.07c.39-.7.77-1.3,1.15-1.93l1.64-2.47h2.28l-4,5.62,4.08,6h-2.4l-1.71-2.62c-.45-.67-.84-1.32-1.25-2h0c-.39.69-.8,1.32-1.23,2L153.51,183h-2.33l4.13-5.93-3.93-5.69Z"/><path d="M11.57,22.53c0-1.2,0-2.19-.1-3.15h1.85l.1,1.88h.07a4,4,0,0,1,3.65-2.14,3.45,3.45,0,0,1,3.29,2.33h0a4.66,4.66,0,0,1,1.3-1.51,4,4,0,0,1,2.57-.82c1.53,0,3.81,1,3.81,5V31H26.09V24.42c0-2.23-.82-3.57-2.52-3.57a2.74,2.74,0,0,0-2.5,1.92,3.68,3.68,0,0,0-.16,1.05V31H18.84V24c0-1.85-.82-3.19-2.42-3.19A3.15,3.15,0,0,0,13.63,24v7H11.57Z"/><path d="M38,31l-.17-1.46h-.07a4.33,4.33,0,0,1-3.55,1.72,3.31,3.31,0,0,1-3.56-3.33c0-2.81,2.5-4.35,7-4.32v-.24A2.4,2.4,0,0,0,35,20.68a5.89,5.89,0,0,0-3,.86l-.48-1.39a7.24,7.24,0,0,1,3.82-1c3.55,0,4.42,2.42,4.42,4.75v4.35A15.77,15.77,0,0,0,39.94,31Zm-.31-5.93c-2.31-.05-4.93.36-4.93,2.62a1.87,1.87,0,0,0,2,2,2.88,2.88,0,0,0,2.8-1.94,2,2,0,0,0,.13-.67Z"/><path d="M45.5,16.12a1.24,1.24,0,0,1-1.34,1.3,1.26,1.26,0,0,1-1.27-1.3,1.28,1.28,0,0,1,1.32-1.32A1.25,1.25,0,0,1,45.5,16.12ZM43.15,31V19.38h2.11V31Z"/><path d="M48.77,22.53c0-1.2,0-2.19-.1-3.15h1.87l.12,1.92h.05a4.28,4.28,0,0,1,3.84-2.18c1.61,0,4.11,1,4.11,4.94V31H56.54V24.3c0-1.87-.69-3.43-2.68-3.43A3,3,0,0,0,51,23a3.28,3.28,0,0,0-.14,1v7H48.77Z"/><path d="M598,155V370H52V155H598m2-2H50V372H600V153Z"/><path d="M68,495l-.17-1.46h-.07a4.32,4.32,0,0,1-3.55,1.72,3.3,3.3,0,0,1-3.55-3.33c0-2.81,2.49-4.35,7-4.32v-.24A2.39,2.39,0,0,0,65,484.68a5.83,5.83,0,0,0-3,.86l-.48-1.39a7.23,7.23,0,0,1,3.81-1c3.56,0,4.42,2.42,4.42,4.75v4.35a16.79,16.79,0,0,0,.19,2.78Zm-.31-5.93c-2.3-.05-4.92.36-4.92,2.62a1.86,1.86,0,0,0,2,2,2.9,2.9,0,0,0,2.81-1.94,2.31,2.31,0,0,0,.12-.67Z"/><path d="M73.14,487c0-1.37,0-2.55-.1-3.63h1.85l.07,2.28h.1a3.47,3.47,0,0,1,3.21-2.54,2.2,2.2,0,0,1,.6.07v2a3.65,3.65,0,0,0-.72-.07,3,3,0,0,0-2.83,2.71,5.86,5.86,0,0,0-.09,1V495H73.14Z"/><path d="M84.1,480.05v3.33h3V485h-3v6.27c0,1.44.41,2.25,1.59,2.25a4.78,4.78,0,0,0,1.22-.14L87,495a5.14,5.14,0,0,1-1.87.29,2.9,2.9,0,0,1-2.28-.89,4.28,4.28,0,0,1-.82-3V485h-1.8v-1.61H82V480.6Z"/><path d="M91.86,480.12a1.31,1.31,0,0,1-2.62,0,1.28,1.28,0,0,1,1.32-1.32A1.25,1.25,0,0,1,91.86,480.12ZM89.5,495V483.38h2.12V495Z"/><path d="M103.4,494.57a7.77,7.77,0,0,1-3.34.67c-3.5,0-5.78-2.38-5.78-5.93a5.91,5.91,0,0,1,6.24-6.17,7.21,7.21,0,0,1,2.93.6l-.48,1.64a4.9,4.9,0,0,0-2.45-.56c-2.66,0-4.1,2-4.1,4.4,0,2.68,1.72,4.34,4,4.34A5.9,5.9,0,0,0,103,493Z"/><path d="M105.87,478H108v17h-2.11Z"/><path d="M112.71,489.58a3.72,3.72,0,0,0,4,4,7.7,7.7,0,0,0,3.21-.6l.36,1.51a9.3,9.3,0,0,1-3.86.72c-3.58,0-5.71-2.35-5.71-5.86s2.06-6.26,5.44-6.26c3.8,0,4.8,3.34,4.8,5.47a7.17,7.17,0,0,1-.07,1Zm6.19-1.52c0-1.34-.55-3.43-2.92-3.43-2.14,0-3.08,2-3.24,3.43Z"/><path d="M122.77,493.75a1.42,1.42,0,0,1,1.44-1.51,1.51,1.51,0,1,1-1.44,1.51Z"/><path d="M128.46,495V485h-1.64v-1.61h1.64v-.5a5.24,5.24,0,0,1,1.63-4,5.51,5.51,0,0,1,3.72-1.18,7.49,7.49,0,0,1,3.48.77V495H135.2V479.64a3.77,3.77,0,0,0-1.73-.31c-2.21,0-2.93,1.6-2.93,3.48v.57h2.72V485h-2.72v10Z"/><path d="M142,489.58a3.72,3.72,0,0,0,4,4,7.75,7.75,0,0,0,3.22-.6l.36,1.51a9.39,9.39,0,0,1-3.87.72c-3.57,0-5.71-2.35-5.71-5.86s2.07-6.26,5.45-6.26c3.79,0,4.8,3.34,4.8,5.47a9.22,9.22,0,0,1-.07,1Zm6.19-1.52c0-1.34-.55-3.43-2.93-3.43-2.13,0-3.07,2-3.24,3.43Z"/><path d="M153.73,483.38l1.65,2.5c.44.65.8,1.25,1.18,1.9h.07c.39-.7.77-1.3,1.15-1.93l1.64-2.47h2.28l-4,5.62,4.08,6h-2.4l-1.71-2.62c-.45-.67-.84-1.32-1.25-2h0c-.39.69-.8,1.32-1.23,2L153.51,495h-2.33l4.13-5.93-3.93-5.69Z"/><path d="M169.76,483.38l2.28,6.53c.38,1.06.7,2,.94,3h.07c.26-1,.6-1.92,1-3l2.26-6.53h2.21L173.94,495h-2l-4.42-11.62Z"/><path d="M182.84,480.12a1.31,1.31,0,0,1-2.62,0,1.28,1.28,0,0,1,1.32-1.32A1.25,1.25,0,0,1,182.84,480.12ZM180.49,495V483.38h2.11V495Z"/><path d="M196.14,478v14c0,1,0,2.21.09,3h-1.89l-.1-2h-.05a4.29,4.29,0,0,1-4,2.28c-2.81,0-5-2.37-5-5.9,0-3.86,2.38-6.24,5.21-6.24A3.89,3.89,0,0,1,194,484.9h0V478ZM194,488.11a3.9,3.9,0,0,0-.09-.89,3.12,3.12,0,0,0-3.05-2.45c-2.18,0-3.48,1.93-3.48,4.49,0,2.36,1.15,4.3,3.43,4.3a3.18,3.18,0,0,0,3.1-2.52,3.8,3.8,0,0,0,.09-.91Z"/><path d="M200.82,489.58a3.72,3.72,0,0,0,4,4A7.79,7.79,0,0,0,208,493l.36,1.51a9.39,9.39,0,0,1-3.87.72c-3.58,0-5.71-2.35-5.71-5.86s2.06-6.26,5.45-6.26c3.79,0,4.8,3.34,4.8,5.47a9.22,9.22,0,0,1-.07,1Zm6.19-1.52c0-1.34-.55-3.43-2.93-3.43-2.14,0-3.07,2-3.24,3.43Z"/><path d="M222.17,489.1c0,4.29-3,6.16-5.78,6.16-3.14,0-5.57-2.3-5.57-6,0-3.89,2.55-6.17,5.76-6.17S222.17,485.54,222.17,489.1Zm-9.21.12c0,2.54,1.46,4.46,3.53,4.46s3.52-1.9,3.52-4.51c0-2-1-4.47-3.47-4.47S213,487,213,489.22Z"/><path d="M235.09,496.8V498h-12v-1.2Z"/><path d="M237.05,495V485h-1.63v-1.61h1.63v-.5a5.25,5.25,0,0,1,1.64-4,5.51,5.51,0,0,1,3.72-1.18,7.49,7.49,0,0,1,3.48.77V495H243.8V479.64a3.77,3.77,0,0,0-1.73-.31c-2.21,0-2.93,1.6-2.93,3.48v.57h2.71V485h-2.71v10Z"/><path d="M250.57,489.58a3.72,3.72,0,0,0,4,4,7.79,7.79,0,0,0,3.22-.6l.36,1.51a9.39,9.39,0,0,1-3.87.72c-3.57,0-5.71-2.35-5.71-5.86s2.06-6.26,5.45-6.26c3.79,0,4.8,3.34,4.8,5.47a9.22,9.22,0,0,1-.07,1Zm6.19-1.52c0-1.34-.55-3.43-2.93-3.43-2.14,0-3.07,2-3.24,3.43Z"/><path d="M262.33,483.38l1.65,2.5c.43.65.79,1.25,1.18,1.9h.07c.38-.7.77-1.3,1.15-1.93l1.63-2.47h2.28l-4,5.62,4.09,6H268l-1.7-2.62c-.46-.67-.84-1.32-1.25-2H265c-.38.69-.79,1.32-1.22,2L262.11,495h-2.33l4.13-5.93L260,483.38Z"/><path d="M598,467V680H52V467H598m2-2H50V682H600V465Z"/><path d="M68,1050l-.17-1.46h-.07a4.32,4.32,0,0,1-3.55,1.72,3.3,3.3,0,0,1-3.55-3.33c0-2.81,2.49-4.35,7-4.32v-.24a2.39,2.39,0,0,0-2.64-2.69,5.83,5.83,0,0,0-3,.86l-.48-1.39a7.23,7.23,0,0,1,3.81-1c3.56,0,4.42,2.42,4.42,4.75v4.35a16.79,16.79,0,0,0,.19,2.78Zm-.31-5.93c-2.3,0-4.92.36-4.92,2.62a1.86,1.86,0,0,0,2,2,2.9,2.9,0,0,0,2.81-1.94,2.31,2.31,0,0,0,.12-.67Z"/><path d="M73.14,1042c0-1.37,0-2.55-.1-3.63h1.85l.07,2.28h.1a3.47,3.47,0,0,1,3.21-2.54,2.2,2.2,0,0,1,.6.07v2a3.65,3.65,0,0,0-.72-.07,3,3,0,0,0-2.83,2.71,5.86,5.86,0,0,0-.09,1V1050H73.14Z"/><path d="M84.1,1035.05v3.33h3V1040h-3v6.27c0,1.44.41,2.25,1.59,2.25a4.78,4.78,0,0,0,1.22-.14L87,1050a5.14,5.14,0,0,1-1.87.29,2.9,2.9,0,0,1-2.28-.89,4.28,4.28,0,0,1-.82-3V1040h-1.8v-1.61H82v-2.78Z"/><path d="M91.86,1035.12a1.31,1.31,0,0,1-2.62,0,1.29,1.29,0,0,1,1.32-1.32A1.26,1.26,0,0,1,91.86,1035.12ZM89.5,1050v-11.62h2.12V1050Z"/><path d="M103.4,1049.57a7.77,7.77,0,0,1-3.34.67c-3.5,0-5.78-2.38-5.78-5.93a5.91,5.91,0,0,1,6.24-6.17,7.21,7.21,0,0,1,2.93.6l-.48,1.64a4.9,4.9,0,0,0-2.45-.56c-2.66,0-4.1,2-4.1,4.4,0,2.68,1.72,4.34,4,4.34A5.9,5.9,0,0,0,103,1048Z"/><path d="M105.87,1033H108v17h-2.11Z"/><path d="M112.71,1044.58a3.72,3.72,0,0,0,4,4,7.7,7.7,0,0,0,3.21-.6l.36,1.51a9.3,9.3,0,0,1-3.86.72c-3.58,0-5.71-2.35-5.71-5.86s2.06-6.26,5.44-6.26c3.8,0,4.8,3.34,4.8,5.47a7.17,7.17,0,0,1-.07,1Zm6.19-1.52c0-1.34-.55-3.43-2.92-3.43-2.14,0-3.08,2-3.24,3.43Z"/><path d="M598,1022v213H52V1022H598m2-2H50v217H600V1020Z"/><path d="M86.06,226.75a1.42,1.42,0,0,1,1.44-1.51,1.51,1.51,0,0,1,0,3A1.41,1.41,0,0,1,86.06,226.75Z"/><path d="M99.82,227.57a7.77,7.77,0,0,1-3.34.67c-3.5,0-5.78-2.38-5.78-5.93a5.91,5.91,0,0,1,6.24-6.17,7.21,7.21,0,0,1,2.93.6l-.48,1.64a4.9,4.9,0,0,0-2.45-.56c-2.67,0-4.11,2-4.11,4.4a4,4,0,0,0,4,4.34,5.9,5.9,0,0,0,2.59-.58Z"/><path d="M112.66,222.1c0,4.29-3,6.16-5.79,6.16-3.14,0-5.57-2.3-5.57-6,0-3.89,2.55-6.17,5.76-6.17S112.66,218.54,112.66,222.1Zm-9.22.12c0,2.54,1.46,4.46,3.53,4.46s3.53-1.9,3.53-4.51c0-2-1-4.47-3.48-4.47S103.44,220,103.44,222.22Z"/><path d="M115.32,211h2.11v17h-2.11Z"/><path d="M131.23,229.8V231h-12v-1.2Z"/><path d="M133,211h2.12v17H133Z"/><path d="M139.82,222.58a3.73,3.73,0,0,0,4,4A7.7,7.7,0,0,0,147,226l.36,1.51a9.3,9.3,0,0,1-3.86.72c-3.58,0-5.71-2.35-5.71-5.86s2.06-6.26,5.45-6.26c3.79,0,4.8,3.34,4.8,5.47a6.86,6.86,0,0,1-.08,1Zm6.2-1.52c0-1.34-.56-3.43-2.93-3.43-2.14,0-3.07,2-3.24,3.43Z"/><path d="M150.89,228V218h-1.63v-1.61h1.63v-.55a5.51,5.51,0,0,1,1.34-4.06,4.08,4.08,0,0,1,2.83-1.08,4.79,4.79,0,0,1,1.8.34l-.28,1.63a3.28,3.28,0,0,0-1.35-.26c-1.8,0-2.25,1.58-2.25,3.36v.62h2.8V218H153v10Z"/><path d="M160.49,213.05v3.33h3V218h-3v6.27c0,1.44.41,2.25,1.58,2.25a4.93,4.93,0,0,0,1.23-.14l.09,1.58a5.1,5.1,0,0,1-1.87.29,2.91,2.91,0,0,1-2.28-.89,4.28,4.28,0,0,1-.82-3V218h-1.8v-1.61h1.8V213.6Z"/><path d="M288,200V339H77V200H288m2-2H75V341H290V198Z"/><path d="M86.06,1093.75a1.42,1.42,0,0,1,1.44-1.51,1.51,1.51,0,0,1,0,3A1.41,1.41,0,0,1,86.06,1093.75Z"/><path d="M99.82,1094.57a7.77,7.77,0,0,1-3.34.67c-3.5,0-5.78-2.38-5.78-5.93a5.91,5.91,0,0,1,6.24-6.17,7.21,7.21,0,0,1,2.93.6l-.48,1.64a4.9,4.9,0,0,0-2.45-.56c-2.67,0-4.11,2-4.11,4.4a4,4,0,0,0,4,4.34,5.9,5.9,0,0,0,2.59-.58Z"/><path d="M112.66,1089.1c0,4.29-3,6.16-5.79,6.16-3.14,0-5.57-2.3-5.57-6,0-3.89,2.55-6.17,5.76-6.17S112.66,1085.54,112.66,1089.1Zm-9.22.12c0,2.54,1.46,4.46,3.53,4.46s3.53-1.9,3.53-4.51c0-2-1-4.47-3.48-4.47S103.44,1087,103.44,1089.22Z"/><path d="M115.32,1078h2.11v17h-2.11Z"/><path d="M131.23,1096.8v1.2h-12v-1.2Z"/><path d="M133,1078h2.12v17H133Z"/><path d="M139.82,1089.58a3.73,3.73,0,0,0,4,4,7.7,7.7,0,0,0,3.21-.6l.36,1.51a9.3,9.3,0,0,1-3.86.72c-3.58,0-5.71-2.35-5.71-5.86s2.06-6.26,5.45-6.26c3.79,0,4.8,3.34,4.8,5.47a6.86,6.86,0,0,1-.08,1Zm6.2-1.52c0-1.34-.56-3.43-2.93-3.43-2.14,0-3.07,2-3.24,3.43Z"/><path d="M150.89,1095v-10h-1.63v-1.61h1.63v-.55a5.51,5.51,0,0,1,1.34-4.06,4.08,4.08,0,0,1,2.83-1.08,4.79,4.79,0,0,1,1.8.34l-.28,1.63a3.28,3.28,0,0,0-1.35-.26c-1.8,0-2.25,1.58-2.25,3.36v.62h2.8V1085H153v10Z"/><path d="M160.49,1080.05v3.33h3V1085h-3v6.27c0,1.44.41,2.25,1.58,2.25a4.93,4.93,0,0,0,1.23-.14l.09,1.58a5.1,5.1,0,0,1-1.87.29,2.91,2.91,0,0,1-2.28-.89,4.28,4.28,0,0,1-.82-3V1085h-1.8v-1.61h1.8v-2.78Z"/><path d="M288,1067v139H77V1067H288m2-2H75v143H290V1065Z"/><path d="M371.06,226.75a1.42,1.42,0,0,1,1.44-1.51,1.51,1.51,0,1,1-1.44,1.51Z"/><path d="M384.82,227.57a7.77,7.77,0,0,1-3.34.67c-3.5,0-5.78-2.38-5.78-5.93a5.9,5.9,0,0,1,6.24-6.17,7.21,7.21,0,0,1,2.93.6l-.48,1.64a4.9,4.9,0,0,0-2.45-.56c-2.67,0-4.11,2-4.11,4.4a4,4,0,0,0,4,4.34,5.9,5.9,0,0,0,2.59-.58Z"/><path d="M397.66,222.1c0,4.29-3,6.16-5.79,6.16-3.14,0-5.57-2.3-5.57-6,0-3.89,2.55-6.17,5.76-6.17S397.66,218.54,397.66,222.1Zm-9.22.12c0,2.54,1.46,4.46,3.53,4.46s3.53-1.9,3.53-4.51c0-2-1-4.47-3.48-4.47S388.44,220,388.44,222.22Z"/><path d="M400.32,211h2.11v17h-2.11Z"/><path d="M416.23,229.8V231h-12v-1.2Z"/><path d="M418,220c0-1.37,0-2.55-.09-3.63h1.85l.07,2.28h.09a3.49,3.49,0,0,1,3.22-2.54,2.2,2.2,0,0,1,.6.07v2a3.74,3.74,0,0,0-.72-.07,3,3,0,0,0-2.83,2.71,5.81,5.81,0,0,0-.1,1V228H418Z"/><path d="M428.28,213.12a1.25,1.25,0,0,1-1.34,1.3,1.26,1.26,0,0,1-1.28-1.3A1.29,1.29,0,0,1,427,211.8,1.25,1.25,0,0,1,428.28,213.12ZM425.93,228V216.38H428V228Z"/><path d="M441.55,216.38c-.05.84-.09,1.78-.09,3.2v6.74c0,2.66-.53,4.3-1.66,5.3a6.14,6.14,0,0,1-4.22,1.4,7.55,7.55,0,0,1-3.87-1l.53-1.61a6.56,6.56,0,0,0,3.41.91c2.16,0,3.74-1.13,3.74-4.06V226h-.05a4.12,4.12,0,0,1-3.69,1.94c-2.88,0-4.95-2.45-4.95-5.66,0-3.94,2.57-6.17,5.24-6.17a3.86,3.86,0,0,1,3.62,2h.05l.1-1.76ZM439.37,221a3.2,3.2,0,0,0-.12-1,3.05,3.05,0,0,0-2.95-2.24c-2,0-3.46,1.71-3.46,4.4,0,2.28,1.15,4.17,3.43,4.17a3.08,3.08,0,0,0,2.93-2.16,3.63,3.63,0,0,0,.17-1.12Z"/><path d="M445,211h2.11v7.25h.05a3.93,3.93,0,0,1,1.51-1.49,4.37,4.37,0,0,1,2.16-.6c1.56,0,4.06,1,4.06,5V228h-2.11v-6.67c0-1.87-.7-3.46-2.69-3.46a3,3,0,0,0-2.83,2.11,2.56,2.56,0,0,0-.15,1v7H445Z"/><path d="M460.73,213.05v3.33h3V218h-3v6.27c0,1.44.41,2.25,1.58,2.25a4.93,4.93,0,0,0,1.23-.14l.09,1.58a5.1,5.1,0,0,1-1.87.29,2.91,2.91,0,0,1-2.28-.89,4.28,4.28,0,0,1-.82-3V218h-1.8v-1.61h1.8V213.6Z"/><path d="M573,200V339H362V200H573m2-2H360V341H575V198Z"/><path d="M372.05,1095l.62-4.7h-2v-1.42h2.18l.45-3.48h-2.06V1084h2.28l.62-4.58h1.4L375,1084h2.49l.63-4.58h1.41l-.6,4.58h2v1.42H378.7l-.43,3.48h2.06v1.42h-2.28l-.62,4.7H376l.62-4.7h-2.5l-.62,4.7Zm4.78-6.12.45-3.48h-2.49l-.46,3.48Z"/><path d="M385.85,1080.12a1.31,1.31,0,0,1-2.62,0,1.29,1.29,0,0,1,1.32-1.32A1.26,1.26,0,0,1,385.85,1080.12ZM383.5,1095v-11.62h2.11V1095Z"/><path d="M389.11,1086.53c0-1.2,0-2.19-.09-3.15h1.84l.1,1.88H391a4,4,0,0,1,3.65-2.14,3.45,3.45,0,0,1,3.29,2.33h0a4.63,4.63,0,0,1,1.29-1.51,4,4,0,0,1,2.57-.82c1.54,0,3.82,1,3.82,5V1095h-2.07v-6.58c0-2.23-.81-3.57-2.52-3.57a2.73,2.73,0,0,0-2.49,1.92,3.35,3.35,0,0,0-.17,1V1095h-2.07v-7c0-1.85-.81-3.19-2.42-3.19a3.11,3.11,0,0,0-2.78,3.14v7h-2.07Z"/><path d="M415.56,1095l-.17-1.46h-.07a4.33,4.33,0,0,1-3.55,1.72,3.3,3.3,0,0,1-3.55-3.33c0-2.81,2.49-4.35,7-4.32v-.24a2.39,2.39,0,0,0-2.64-2.69,5.83,5.83,0,0,0-3,.86l-.48-1.39a7.23,7.23,0,0,1,3.81-1c3.55,0,4.42,2.42,4.42,4.75v4.35a16.79,16.79,0,0,0,.19,2.78Zm-.31-5.93c-2.31,0-4.92.36-4.92,2.62a1.86,1.86,0,0,0,2,2,2.9,2.9,0,0,0,2.81-1.94,2.31,2.31,0,0,0,.12-.67Z"/><path d="M430.71,1083.38c0,.84-.1,1.78-.1,3.2v6.74c0,2.66-.53,4.3-1.66,5.3a6.13,6.13,0,0,1-4.22,1.4,7.58,7.58,0,0,1-3.87-1l.53-1.61a6.56,6.56,0,0,0,3.41.91c2.16,0,3.74-1.13,3.74-4.06V1093h0a4.15,4.15,0,0,1-3.7,1.94c-2.88,0-4.94-2.45-4.94-5.66,0-3.94,2.56-6.17,5.23-6.17a3.86,3.86,0,0,1,3.62,2h.05l.1-1.76Zm-2.19,4.59a2.91,2.91,0,0,0-.12-1,3,3,0,0,0-2.95-2.23c-2,0-3.46,1.7-3.46,4.39,0,2.28,1.15,4.17,3.43,4.17a3.07,3.07,0,0,0,2.93-2.16,3.63,3.63,0,0,0,.17-1.12Z"/><path d="M435.29,1089.58a3.72,3.72,0,0,0,4,4,7.72,7.72,0,0,0,3.22-.6l.36,1.51a9.39,9.39,0,0,1-3.87.72c-3.57,0-5.71-2.35-5.71-5.86s2.07-6.26,5.45-6.26c3.79,0,4.8,3.34,4.8,5.47a9.22,9.22,0,0,1-.07,1Zm6.19-1.52c0-1.34-.55-3.43-2.93-3.43-2.13,0-3.07,2-3.24,3.43Z"/><path d="M445.85,1092.84a5.51,5.51,0,0,0,2.78.84c1.54,0,2.26-.77,2.26-1.73s-.6-1.56-2.16-2.13c-2.09-.75-3.07-1.9-3.07-3.29,0-1.87,1.51-3.41,4-3.41a5.85,5.85,0,0,1,2.86.72l-.53,1.54a4.45,4.45,0,0,0-2.37-.68c-1.25,0-1.95.72-1.95,1.59s.7,1.39,2.21,2c2,.76,3.05,1.77,3.05,3.5,0,2-1.59,3.48-4.35,3.48a6.63,6.63,0,0,1-3.26-.79Z"/><path d="M573,1067v139H362V1067H573m2-2H360v143H575V1065Z"/><path d="M87.05,540l.62-4.7h-2v-1.42h2.18l.46-3.48H86.28V529h2.28l.63-4.58h1.39L90,529h2.49l.63-4.58h1.41l-.6,4.58h2v1.42H93.7l-.43,3.48h2.06v1.42H93.05l-.62,4.7H91l.62-4.7h-2.5l-.62,4.7Zm4.78-6.12.45-3.48H89.79l-.46,3.48Z"/><path d="M100.85,525.12a1.31,1.31,0,0,1-2.62,0,1.28,1.28,0,0,1,1.32-1.32A1.25,1.25,0,0,1,100.85,525.12ZM98.5,540V528.38h2.11V540Z"/><path d="M104.33,540V530H102.7v-1.61h1.63v-.55a5.51,5.51,0,0,1,1.34-4.06,4.08,4.08,0,0,1,2.83-1.08,4.89,4.89,0,0,1,1.81.34l-.29,1.63a3.25,3.25,0,0,0-1.35-.26c-1.8,0-2.25,1.58-2.25,3.36v.62h2.81V530h-2.81v10Z"/><path d="M111.12,532c0-1.37,0-2.55-.1-3.63h1.85l.07,2.28h.1a3.48,3.48,0,0,1,3.22-2.54,2.2,2.2,0,0,1,.6.07v2a3.82,3.82,0,0,0-.72-.07,3,3,0,0,0-2.84,2.71,7.12,7.12,0,0,0-.09,1V540h-2.09Z"/><path d="M125.28,540l-.17-1.46H125a4.32,4.32,0,0,1-3.55,1.72,3.3,3.3,0,0,1-3.55-3.33c0-2.81,2.49-4.35,7-4.32v-.24a2.39,2.39,0,0,0-2.64-2.69,5.83,5.83,0,0,0-3,.86l-.48-1.39a7.23,7.23,0,0,1,3.81-1c3.56,0,4.42,2.42,4.42,4.75v4.35a16.79,16.79,0,0,0,.19,2.78Zm-.31-5.93c-2.3-.05-4.92.36-4.92,2.62a1.86,1.86,0,0,0,2,2,2.9,2.9,0,0,0,2.81-1.94,2.31,2.31,0,0,0,.12-.67Z"/><path d="M130.42,531.53c0-1.2,0-2.19-.1-3.15h1.85l.09,1.88h.08a4,4,0,0,1,3.65-2.14,3.42,3.42,0,0,1,3.28,2.33h0a4.66,4.66,0,0,1,1.3-1.51,3.94,3.94,0,0,1,2.57-.82c1.53,0,3.81,1,3.81,5V540h-2.06v-6.58c0-2.23-.82-3.57-2.52-3.57a2.74,2.74,0,0,0-2.5,1.92,3.66,3.66,0,0,0-.17,1.05V540h-2.06v-7c0-1.85-.82-3.19-2.42-3.19a3.15,3.15,0,0,0-2.79,3.14v7h-2.06Z"/><path d="M151.61,534.58a3.72,3.72,0,0,0,4,4,7.72,7.72,0,0,0,3.22-.6l.36,1.51a9.33,9.33,0,0,1-3.86.72c-3.58,0-5.72-2.35-5.72-5.86s2.07-6.26,5.45-6.26c3.79,0,4.8,3.34,4.8,5.47a9.22,9.22,0,0,1-.07,1Zm6.19-1.52c0-1.34-.55-3.43-2.93-3.43-2.13,0-3.07,2-3.24,3.43Z"/><path d="M172.71,541.8V543h-12v-1.2Z"/><path d="M174.67,540V530H173v-1.61h1.63v-.55a5.47,5.47,0,0,1,1.35-4.06,4.06,4.06,0,0,1,2.83-1.08,4.87,4.87,0,0,1,1.8.34l-.29,1.63a3.2,3.2,0,0,0-1.34-.26c-1.8,0-2.26,1.58-2.26,3.36v.62h2.81V530h-2.81v10Z"/><path d="M181.46,532c0-1.37,0-2.55-.09-3.63h1.85l.07,2.28h.09a3.48,3.48,0,0,1,3.22-2.54,2.2,2.2,0,0,1,.6.07v2a3.74,3.74,0,0,0-.72-.07,3,3,0,0,0-2.83,2.71,5.81,5.81,0,0,0-.1,1V540h-2.09Z"/><path d="M195.62,540l-.16-1.46h-.07a4.34,4.34,0,0,1-3.56,1.72,3.3,3.3,0,0,1-3.55-3.33c0-2.81,2.5-4.35,7-4.32v-.24a2.4,2.4,0,0,0-2.65-2.69,5.86,5.86,0,0,0-3,.86l-.48-1.39a7.24,7.24,0,0,1,3.82-1c3.55,0,4.41,2.42,4.41,4.75v4.35a15.71,15.71,0,0,0,.2,2.78Zm-.31-5.93c-2.3-.05-4.92.36-4.92,2.62a1.86,1.86,0,0,0,2,2,2.88,2.88,0,0,0,2.81-1.94,2,2,0,0,0,.12-.67Z"/><path d="M200.76,531.53c0-1.2,0-2.19-.1-3.15h1.85l.1,1.88h.07a4,4,0,0,1,3.65-2.14,3.45,3.45,0,0,1,3.29,2.33h0a4.66,4.66,0,0,1,1.3-1.51,4,4,0,0,1,2.57-.82c1.54,0,3.82,1,3.82,5V540h-2.07v-6.58c0-2.23-.82-3.57-2.52-3.57a2.74,2.74,0,0,0-2.5,1.92,3.68,3.68,0,0,0-.16,1.05V540H208v-7c0-1.85-.81-3.19-2.42-3.19a3.15,3.15,0,0,0-2.79,3.14v7h-2.06Z"/><path d="M222,534.58a3.73,3.73,0,0,0,4,4,7.7,7.7,0,0,0,3.21-.6l.36,1.51a9.3,9.3,0,0,1-3.86.72c-3.58,0-5.71-2.35-5.71-5.86s2.06-6.26,5.44-6.26c3.8,0,4.81,3.34,4.81,5.47a6.86,6.86,0,0,1-.08,1Zm6.2-1.52c0-1.34-.56-3.43-2.93-3.43-2.14,0-3.08,2-3.24,3.43Z"/><path d="M352,512V651H77V512H352m2-2H75V653H354V510Z"/><path d="M390.06,538.75a1.42,1.42,0,0,1,1.44-1.51,1.51,1.51,0,1,1-1.44,1.51Z"/><path d="M403.82,539.57a7.77,7.77,0,0,1-3.34.67c-3.5,0-5.78-2.38-5.78-5.93a5.9,5.9,0,0,1,6.24-6.17,7.21,7.21,0,0,1,2.93.6l-.48,1.64a4.9,4.9,0,0,0-2.45-.56c-2.67,0-4.11,2-4.11,4.4a4,4,0,0,0,4,4.34,5.9,5.9,0,0,0,2.59-.58Z"/><path d="M416.66,534.1c0,4.29-3,6.16-5.79,6.16-3.14,0-5.57-2.3-5.57-6,0-3.89,2.55-6.17,5.76-6.17S416.66,530.54,416.66,534.1Zm-9.22.12c0,2.54,1.46,4.46,3.53,4.46s3.53-1.9,3.53-4.51c0-2-1-4.47-3.48-4.47S407.44,532,407.44,534.22Z"/><path d="M419.32,531.53c0-1.2,0-2.19-.1-3.15h1.88l.12,1.92h0a4.28,4.28,0,0,1,3.84-2.18c1.61,0,4.11,1,4.11,4.94V540H427.1v-6.7c0-1.87-.7-3.43-2.69-3.43a3.12,3.12,0,0,0-3,3.15v7h-2.11Z"/><path d="M435.09,525.05v3.33h3V530h-3v6.27c0,1.44.41,2.25,1.58,2.25a4.93,4.93,0,0,0,1.23-.14L438,540a5.1,5.1,0,0,1-1.87.29,2.91,2.91,0,0,1-2.28-.89,4.28,4.28,0,0,1-.82-3V530h-1.8v-1.61H433V525.6Z"/><path d="M441.52,534.58a3.72,3.72,0,0,0,4,4,7.72,7.72,0,0,0,3.22-.6l.36,1.51a9.33,9.33,0,0,1-3.86.72c-3.58,0-5.72-2.35-5.72-5.86s2.07-6.26,5.45-6.26c3.8,0,4.8,3.34,4.8,5.47a7.17,7.17,0,0,1-.07,1Zm6.19-1.52c0-1.34-.55-3.43-2.93-3.43-2.13,0-3.07,2-3.24,3.43Z"/><path d="M452.37,531.53c0-1.2,0-2.19-.1-3.15h1.87l.12,1.92h.05a4.28,4.28,0,0,1,3.84-2.18c1.61,0,4.11,1,4.11,4.94V540h-2.12v-6.7c0-1.87-.69-3.43-2.68-3.43a3,3,0,0,0-2.84,2.16,3.28,3.28,0,0,0-.14,1v7h-2.11Z"/><path d="M468.14,525.05v3.33h3V530h-3v6.27c0,1.44.4,2.25,1.58,2.25a4.78,4.78,0,0,0,1.22-.14L471,540a5.14,5.14,0,0,1-1.87.29,2.9,2.9,0,0,1-2.28-.89,4.28,4.28,0,0,1-.82-3V530h-1.8v-1.61h1.8V525.6Z"/><path d="M573,512V651H381V512H573m2-2H379V653H575V510Z"/><path d="M68,739l-.17-1.46h-.07a4.32,4.32,0,0,1-3.55,1.72,3.3,3.3,0,0,1-3.55-3.33c0-2.81,2.49-4.35,7-4.32v-.24A2.39,2.39,0,0,0,65,728.68a5.83,5.83,0,0,0-3,.86l-.48-1.39a7.23,7.23,0,0,1,3.81-1c3.56,0,4.42,2.42,4.42,4.75v4.35a16.79,16.79,0,0,0,.19,2.78Zm-.31-5.93c-2.3-.05-4.92.36-4.92,2.62a1.86,1.86,0,0,0,2,2,2.9,2.9,0,0,0,2.81-1.94,2.31,2.31,0,0,0,.12-.67Z"/><path d="M73.14,731c0-1.37,0-2.55-.1-3.63h1.85l.07,2.28h.1a3.47,3.47,0,0,1,3.21-2.54,2.2,2.2,0,0,1,.6.07v2a3.65,3.65,0,0,0-.72-.07,3,3,0,0,0-2.83,2.71,5.86,5.86,0,0,0-.09,1V739H73.14Z"/><path d="M84.1,724.05v3.33h3V729h-3v6.27c0,1.44.41,2.25,1.59,2.25a4.78,4.78,0,0,0,1.22-.14L87,739a5.14,5.14,0,0,1-1.87.29,2.9,2.9,0,0,1-2.28-.89,4.28,4.28,0,0,1-.82-3V729h-1.8v-1.61H82V724.6Z"/><path d="M91.86,724.12a1.31,1.31,0,0,1-2.62,0,1.29,1.29,0,0,1,1.32-1.32A1.26,1.26,0,0,1,91.86,724.12ZM89.5,739V727.38h2.12V739Z"/><path d="M103.4,738.57a7.77,7.77,0,0,1-3.34.67c-3.5,0-5.78-2.38-5.78-5.93a5.91,5.91,0,0,1,6.24-6.17,7.21,7.21,0,0,1,2.93.6l-.48,1.64a4.9,4.9,0,0,0-2.45-.56c-2.66,0-4.1,2-4.1,4.4,0,2.68,1.72,4.34,4,4.34A5.9,5.9,0,0,0,103,737Z"/><path d="M105.87,722H108v17h-2.11Z"/><path d="M112.71,733.58a3.72,3.72,0,0,0,4,4,7.7,7.7,0,0,0,3.21-.6l.36,1.51a9.3,9.3,0,0,1-3.86.72c-3.58,0-5.71-2.35-5.71-5.86s2.06-6.26,5.44-6.26c3.8,0,4.8,3.34,4.8,5.47a7.17,7.17,0,0,1-.07,1Zm6.19-1.52c0-1.34-.55-3.43-2.92-3.43-2.14,0-3.08,2-3.24,3.43Z"/><path d="M122.77,737.75a1.42,1.42,0,0,1,1.44-1.51,1.51,1.51,0,1,1-1.44,1.51Z"/><path d="M128.46,739V729h-1.64v-1.61h1.64v-.5a5.24,5.24,0,0,1,1.63-4,5.51,5.51,0,0,1,3.72-1.18,7.49,7.49,0,0,1,3.48.77V739H135.2V723.64a3.77,3.77,0,0,0-1.73-.31c-2.21,0-2.93,1.6-2.93,3.48v.57h2.72V729h-2.72v10Z"/><path d="M142,733.58a3.72,3.72,0,0,0,4,4,7.75,7.75,0,0,0,3.22-.6l.36,1.51a9.39,9.39,0,0,1-3.87.72c-3.57,0-5.71-2.35-5.71-5.86s2.07-6.26,5.45-6.26c3.79,0,4.8,3.34,4.8,5.47a9.22,9.22,0,0,1-.07,1Zm6.19-1.52c0-1.34-.55-3.43-2.93-3.43-2.13,0-3.07,2-3.24,3.43Z"/><path d="M153.73,727.38l1.65,2.5c.44.65.8,1.25,1.18,1.9h.07c.39-.7.77-1.3,1.15-1.92l1.64-2.48h2.28l-4,5.62,4.08,6h-2.4l-1.71-2.62c-.45-.67-.84-1.32-1.25-2h0c-.39.69-.8,1.32-1.23,2L153.51,739h-2.33l4.13-5.93-3.93-5.69Z"/><path d="M169.76,727.38l2.28,6.53c.38,1.06.7,2,.94,3h.07c.26-1,.6-1.92,1-3l2.26-6.53h2.21L173.94,739h-2l-4.42-11.62Z"/><path d="M182.84,724.12a1.31,1.31,0,0,1-2.62,0,1.29,1.29,0,0,1,1.32-1.32A1.26,1.26,0,0,1,182.84,724.12ZM180.49,739V727.38h2.11V739Z"/><path d="M196.14,722v14c0,1,0,2.21.09,3h-1.89l-.1-2h-.05a4.29,4.29,0,0,1-4,2.28c-2.81,0-5-2.37-5-5.9,0-3.86,2.38-6.24,5.21-6.24A3.89,3.89,0,0,1,194,728.9h0V722ZM194,732.11a3.9,3.9,0,0,0-.09-.89,3.11,3.11,0,0,0-3.05-2.44c-2.18,0-3.48,1.92-3.48,4.48,0,2.36,1.15,4.3,3.43,4.3a3.18,3.18,0,0,0,3.1-2.52,3.8,3.8,0,0,0,.09-.91Z"/><path d="M200.82,733.58a3.72,3.72,0,0,0,4,4A7.79,7.79,0,0,0,208,737l.36,1.51a9.39,9.39,0,0,1-3.87.72c-3.58,0-5.71-2.35-5.71-5.86s2.06-6.26,5.45-6.26c3.79,0,4.8,3.34,4.8,5.47a9.22,9.22,0,0,1-.07,1Zm6.19-1.52c0-1.34-.55-3.43-2.93-3.43-2.14,0-3.07,2-3.24,3.43Z"/><path d="M222.17,733.1c0,4.29-3,6.16-5.78,6.16-3.14,0-5.57-2.3-5.57-6,0-3.89,2.55-6.17,5.76-6.17S222.17,729.54,222.17,733.1Zm-9.21.12c0,2.54,1.46,4.46,3.53,4.46s3.52-1.9,3.52-4.51c0-2-1-4.47-3.47-4.47S213,731,213,733.22Z"/><path d="M235.09,740.8V742h-12v-1.2Z"/><path d="M237.05,739V729h-1.63v-1.61h1.63v-.5a5.25,5.25,0,0,1,1.64-4,5.51,5.51,0,0,1,3.72-1.18,7.49,7.49,0,0,1,3.48.77V739H243.8V723.64a3.77,3.77,0,0,0-1.73-.31c-2.21,0-2.93,1.6-2.93,3.48v.57h2.71V729h-2.71v10Z"/><path d="M250.57,733.58a3.72,3.72,0,0,0,4,4,7.79,7.79,0,0,0,3.22-.6l.36,1.51a9.39,9.39,0,0,1-3.87.72c-3.57,0-5.71-2.35-5.71-5.86s2.06-6.26,5.45-6.26c3.79,0,4.8,3.34,4.8,5.47a9.22,9.22,0,0,1-.07,1Zm6.19-1.52c0-1.34-.55-3.43-2.93-3.43-2.14,0-3.07,2-3.24,3.43Z"/><path d="M262.33,727.38l1.65,2.5c.43.65.79,1.25,1.18,1.9h.07c.38-.7.77-1.3,1.15-1.92l1.63-2.48h2.28l-4,5.62,4.09,6H268l-1.7-2.62c-.46-.67-.84-1.32-1.25-2H265c-.38.69-.79,1.32-1.22,2L262.11,739h-2.33l4.13-5.93L260,727.38Z"/><path d="M598,711V924H52V711H598m2-2H50V926H600V709Z"/><path d="M87.05,784l.62-4.7h-2v-1.42h2.18l.46-3.48H86.28V773h2.28l.63-4.58h1.39L90,773h2.49l.63-4.58h1.41l-.6,4.58h2v1.42H93.7l-.43,3.48h2.06v1.42H93.05l-.62,4.7H91l.62-4.7h-2.5l-.62,4.7Zm4.78-6.12.45-3.48H89.79l-.46,3.48Z"/><path d="M100.85,769.12a1.31,1.31,0,0,1-2.62,0,1.29,1.29,0,0,1,1.32-1.32A1.26,1.26,0,0,1,100.85,769.12ZM98.5,784V772.38h2.11V784Z"/><path d="M104.33,784V774H102.7v-1.61h1.63v-.55a5.51,5.51,0,0,1,1.34-4.06,4.08,4.08,0,0,1,2.83-1.08,4.89,4.89,0,0,1,1.81.34l-.29,1.63a3.25,3.25,0,0,0-1.35-.26c-1.8,0-2.25,1.58-2.25,3.36v.62h2.81V774h-2.81v10Z"/><path d="M111.12,776c0-1.37,0-2.55-.1-3.63h1.85l.07,2.28h.1a3.48,3.48,0,0,1,3.22-2.54,2.2,2.2,0,0,1,.6.07v2a3.82,3.82,0,0,0-.72-.07,3,3,0,0,0-2.84,2.71,7.12,7.12,0,0,0-.09,1V784h-2.09Z"/><path d="M125.28,784l-.17-1.46H125a4.32,4.32,0,0,1-3.55,1.72,3.3,3.3,0,0,1-3.55-3.33c0-2.81,2.49-4.35,7-4.32v-.24a2.39,2.39,0,0,0-2.64-2.69,5.83,5.83,0,0,0-3,.86l-.48-1.39a7.23,7.23,0,0,1,3.81-1c3.56,0,4.42,2.42,4.42,4.75v4.35a16.79,16.79,0,0,0,.19,2.78Zm-.31-5.93c-2.3-.05-4.92.36-4.92,2.62a1.86,1.86,0,0,0,2,2,2.9,2.9,0,0,0,2.81-1.94,2.31,2.31,0,0,0,.12-.67Z"/><path d="M130.42,775.53c0-1.2,0-2.19-.1-3.15h1.85l.09,1.88h.08a4,4,0,0,1,3.65-2.14,3.42,3.42,0,0,1,3.28,2.33h0a4.66,4.66,0,0,1,1.3-1.51,3.94,3.94,0,0,1,2.57-.82c1.53,0,3.81,1,3.81,5V784h-2.06v-6.58c0-2.23-.82-3.57-2.52-3.57a2.74,2.74,0,0,0-2.5,1.92,3.66,3.66,0,0,0-.17,1.05V784h-2.06v-7c0-1.85-.82-3.19-2.42-3.19a3.15,3.15,0,0,0-2.79,3.14v7h-2.06Z"/><path d="M151.61,778.58a3.72,3.72,0,0,0,4,4,7.72,7.72,0,0,0,3.22-.6l.36,1.51a9.33,9.33,0,0,1-3.86.72c-3.58,0-5.72-2.35-5.72-5.86s2.07-6.26,5.45-6.26c3.79,0,4.8,3.34,4.8,5.47a9.22,9.22,0,0,1-.07,1Zm6.19-1.52c0-1.34-.55-3.43-2.93-3.43-2.13,0-3.07,2-3.24,3.43Z"/><path d="M172.71,785.8V787h-12v-1.2Z"/><path d="M174.67,784V774H173v-1.61h1.63v-.55a5.47,5.47,0,0,1,1.35-4.06,4.06,4.06,0,0,1,2.83-1.08,4.87,4.87,0,0,1,1.8.34l-.29,1.63a3.2,3.2,0,0,0-1.34-.26c-1.8,0-2.26,1.58-2.26,3.36v.62h2.81V774h-2.81v10Z"/><path d="M181.46,776c0-1.37,0-2.55-.09-3.63h1.85l.07,2.28h.09a3.48,3.48,0,0,1,3.22-2.54,2.2,2.2,0,0,1,.6.07v2a3.74,3.74,0,0,0-.72-.07,3,3,0,0,0-2.83,2.71,5.81,5.81,0,0,0-.1,1V784h-2.09Z"/><path d="M195.62,784l-.16-1.46h-.07a4.34,4.34,0,0,1-3.56,1.72,3.3,3.3,0,0,1-3.55-3.33c0-2.81,2.5-4.35,7-4.32v-.24a2.4,2.4,0,0,0-2.65-2.69,5.86,5.86,0,0,0-3,.86l-.48-1.39a7.24,7.24,0,0,1,3.82-1c3.55,0,4.41,2.42,4.41,4.75v4.35a15.71,15.71,0,0,0,.2,2.78Zm-.31-5.93c-2.3-.05-4.92.36-4.92,2.62a1.86,1.86,0,0,0,2,2,2.88,2.88,0,0,0,2.81-1.94,2,2,0,0,0,.12-.67Z"/><path d="M200.76,775.53c0-1.2,0-2.19-.1-3.15h1.85l.1,1.88h.07a4,4,0,0,1,3.65-2.14,3.45,3.45,0,0,1,3.29,2.33h0a4.66,4.66,0,0,1,1.3-1.51,4,4,0,0,1,2.57-.82c1.54,0,3.82,1,3.82,5V784h-2.07v-6.58c0-2.23-.82-3.57-2.52-3.57a2.74,2.74,0,0,0-2.5,1.92,3.68,3.68,0,0,0-.16,1.05V784H208v-7c0-1.85-.81-3.19-2.42-3.19a3.15,3.15,0,0,0-2.79,3.14v7h-2.06Z"/><path d="M222,778.58a3.73,3.73,0,0,0,4,4,7.7,7.7,0,0,0,3.21-.6l.36,1.51a9.3,9.3,0,0,1-3.86.72c-3.58,0-5.71-2.35-5.71-5.86s2.06-6.26,5.44-6.26c3.8,0,4.81,3.34,4.81,5.47a6.86,6.86,0,0,1-.08,1Zm6.2-1.52c0-1.34-.56-3.43-2.93-3.43-2.14,0-3.08,2-3.24,3.43Z"/><path d="M352,756V895H77V756H352m2-2H75V897H354V754Z"/><path d="M390.06,782.75a1.42,1.42,0,0,1,1.44-1.51,1.51,1.51,0,1,1-1.44,1.51Z"/><path d="M403.82,783.57a7.77,7.77,0,0,1-3.34.67c-3.5,0-5.78-2.38-5.78-5.93a5.9,5.9,0,0,1,6.24-6.17,7.21,7.21,0,0,1,2.93.6l-.48,1.64a4.9,4.9,0,0,0-2.45-.56c-2.67,0-4.11,2-4.11,4.4a4,4,0,0,0,4,4.34,5.9,5.9,0,0,0,2.59-.58Z"/><path d="M416.66,778.1c0,4.29-3,6.16-5.79,6.16-3.14,0-5.57-2.3-5.57-6,0-3.89,2.55-6.17,5.76-6.17S416.66,774.54,416.66,778.1Zm-9.22.12c0,2.54,1.46,4.46,3.53,4.46s3.53-1.9,3.53-4.51c0-2-1-4.47-3.48-4.47S407.44,776,407.44,778.22Z"/><path d="M419.32,775.53c0-1.2,0-2.19-.1-3.15h1.88l.12,1.92h0a4.28,4.28,0,0,1,3.84-2.18c1.61,0,4.11,1,4.11,4.94V784H427.1v-6.7c0-1.87-.7-3.43-2.69-3.43a3.12,3.12,0,0,0-3,3.15v7h-2.11Z"/><path d="M435.09,769.05v3.33h3V774h-3v6.27c0,1.44.41,2.25,1.58,2.25a4.93,4.93,0,0,0,1.23-.14L438,784a5.1,5.1,0,0,1-1.87.29,2.91,2.91,0,0,1-2.28-.89,4.28,4.28,0,0,1-.82-3V774h-1.8v-1.61H433V769.6Z"/><path d="M441.52,778.58a3.72,3.72,0,0,0,4,4,7.72,7.72,0,0,0,3.22-.6l.36,1.51a9.33,9.33,0,0,1-3.86.72c-3.58,0-5.72-2.35-5.72-5.86s2.07-6.26,5.45-6.26c3.8,0,4.8,3.34,4.8,5.47a7.17,7.17,0,0,1-.07,1Zm6.19-1.52c0-1.34-.55-3.43-2.93-3.43-2.13,0-3.07,2-3.24,3.43Z"/><path d="M452.37,775.53c0-1.2,0-2.19-.1-3.15h1.87l.12,1.92h.05a4.28,4.28,0,0,1,3.84-2.18c1.61,0,4.11,1,4.11,4.94V784h-2.12v-6.7c0-1.87-.69-3.43-2.68-3.43a3,3,0,0,0-2.84,2.16,3.28,3.28,0,0,0-.14,1v7h-2.11Z"/><path d="M468.14,769.05v3.33h3V774h-3v6.27c0,1.44.4,2.25,1.58,2.25a4.78,4.78,0,0,0,1.22-.14L471,784a5.14,5.14,0,0,1-1.87.29,2.9,2.9,0,0,1-2.28-.89,4.28,4.28,0,0,1-.82-3V774h-1.8v-1.61h1.8V769.6Z"/><path d="M573,756V895H381V756H573m2-2H379V897H575V754Z"/></svg>